<svg xmlns="http://www.w3.org/2000/svg" xmlns:xlink="http://www.w3.org/1999/xlink" width="40" zoomAndPan="magnify" viewBox="0 0 30 30.000001" height="40" preserveAspectRatio="xMidYMid meet" version="1.0"><defs><g/><clipPath id="ce6affc1b2"><path d="M 0.484375 0 L 29.515625 0 L 29.515625 29.03125 L 0.484375 29.03125 Z M 0.484375 0 " clip-rule="nonzero"/></clipPath><clipPath id="b349b0fc97"><path d="M 4.113281 0 L 25.886719 0 C 27.890625 0 29.515625 1.625 29.515625 3.628906 L 29.515625 25.402344 C 29.515625 27.40625 27.890625 29.03125 25.886719 29.03125 L 4.113281 29.03125 C 2.109375 29.03125 0.484375 27.40625 0.484375 25.402344 L 0.484375 3.628906 C 0.484375 1.625 2.109375 0 4.113281 0 Z M 4.113281 0 " clip-rule="nonzero"/></clipPath></defs><g clip-path="url(#ce6affc1b2)"><g clip-path="url(#b349b0fc97)"><path fill="#fc7942" d="M 0.484375 0 L 29.515625 0 L 29.515625 29.03125 L 0.484375 29.03125 Z M 0.484375 0 " fill-opacity="1" fill-rule="nonzero"/></g></g><g fill="#000000" fill-opacity="1"><g transform="translate(5.403566, 24.635598)"><g><path d="M 2.125 -19.78125 L 8.484375 -19.78125 L 8.484375 -5.0625 L 18.625 -5.0625 L 18.625 0 L 2.125 0 Z M 2.125 -19.78125 "/></g></g></g></svg>